<svg width="23" height="23" viewBox="0 0 23 23" fill="none" xmlns="http://www.w3.org/2000/svg">
<path d="M0.502545 2.44779L2.57418 0.376339C2.81776 0.132741 3.1411 0 3.47999 0C3.53268 0 3.58624 0.00316736 3.63922 0.00979001C4.03512 0.0584521 4.38005 0.282183 4.58506 0.623681L7.31863 5.18352C7.62182 5.6903 7.54264 6.33471 7.1263 6.75107L5.7382 8.13924C5.34288 8.53429 5.24671 9.13379 5.49778 9.62876C5.90606 10.4454 6.84298 11.8692 8.98717 14.0138C11.1305 16.1575 12.5543 17.0945 13.37 17.5025C13.8658 17.7524 14.4647 17.6551 14.8609 17.2592L16.2492 15.8745C16.6662 15.4584 17.3108 15.3795 17.8167 15.6822L22.3758 18.4153C22.7178 18.6203 22.9415 18.9653 22.9902 19.3618C23.0388 19.7571 22.905 20.1458 22.6237 20.4271L20.5523 22.4986C20.214 22.8363 19.7568 23.0149 19.2797 22.999C17.1496 22.904 11.6177 22.1044 6.25733 16.7435C0.897004 11.3794 0.0968559 5.84924 0.0015522 3.72135C-0.0188906 3.2474 0.163367 2.78382 0.502545 2.44808V2.44779Z" fill="black"/>
</svg>
