<svg width="52" height="53" viewBox="0 0 52 53" fill="none" xmlns="http://www.w3.org/2000/svg">
<path d="M26.7105 0C15.7226 0 6.7832 9.11128 6.7832 20.309C6.7832 30.8352 23.1007 49.0402 24.9618 51.0811L26.7105 53L28.4591 51.0811C30.3202 49.0402 46.6377 30.8352 46.6377 20.309C46.6377 9.11128 37.6983 0 26.7105 0ZM26.7105 45.79C21.2799 39.4807 11.5563 26.8343 11.5563 20.309C11.5563 11.7928 18.3535 4.86493 26.7105 4.86493C35.066 4.86493 41.8646 11.7928 41.8646 20.309C41.8646 26.8343 32.1424 39.4807 26.7105 45.79Z" fill="#A8D0E4"/>
<path d="M26.7089 9.93552C21.5609 9.93552 17.373 14.2039 17.373 19.4509C17.373 24.6978 21.5609 28.9662 26.7089 28.9662C31.8568 28.9662 36.0447 24.6978 36.0447 19.4509C36.0447 14.2054 31.8568 9.93552 26.7089 9.93552ZM26.7089 24.1013C24.1933 24.1013 22.1462 22.0163 22.1462 19.4509C22.1462 16.8869 24.1933 14.8005 26.7089 14.8005C29.2245 14.8005 31.2715 16.8869 31.2715 19.4509C31.2715 22.0163 29.2259 24.1013 26.7089 24.1013Z" fill="#A8D0E4"/>
</svg>
